<mxfile host="app.diagrams.net" modified="2024-05-23T03:57:10.811Z" agent="Mozilla/5.0 (Macintosh; Intel Mac OS X 10_15_7) AppleWebKit/537.36 (KHTML, like Gecko) Chrome/124.0.0.0 Safari/537.36" etag="MRK0XgWrITASWg3l0PHv" version="24.4.4" type="device">
  <diagram name="Page-1" id="N95kxnSCE1Vh5nHZLzWz">
    <mxGraphModel dx="915" dy="602" grid="1" gridSize="10" guides="1" tooltips="1" connect="1" arrows="1" fold="1" page="1" pageScale="1" pageWidth="850" pageHeight="1100" background="none" math="0" shadow="0">
      <root>
        <mxCell id="0" />
        <mxCell id="1" parent="0" />
        <mxCell id="DmKBOVWt1Hb8cWZtH86P-192" value="" style="rounded=0;whiteSpace=wrap;html=1;fillColor=none;" vertex="1" parent="1">
          <mxGeometry x="30" y="495" width="550" height="450" as="geometry" />
        </mxCell>
        <mxCell id="QosCXspa3jDB6QgWmCib-64" value="" style="rounded=0;whiteSpace=wrap;html=1;fillColor=none;" parent="1" vertex="1">
          <mxGeometry x="30" y="30" width="550" height="450" as="geometry" />
        </mxCell>
        <mxCell id="DmKBOVWt1Hb8cWZtH86P-24" value="" style="shape=flexArrow;endArrow=classic;html=1;rounded=0;endWidth=28.23529411764706;endSize=7.007843137254903;width=18.823529411764707;fillColor=default;" edge="1" parent="1">
          <mxGeometry width="50" height="50" relative="1" as="geometry">
            <mxPoint x="360.5" y="184.76999999999998" as="sourcePoint" />
            <mxPoint x="457.5" y="184.76999999999998" as="targetPoint" />
          </mxGeometry>
        </mxCell>
        <mxCell id="DmKBOVWt1Hb8cWZtH86P-30" value="push(&quot;XYZ&quot;)" style="edgeLabel;html=1;align=center;verticalAlign=middle;resizable=0;points=[];labelBackgroundColor=default;" vertex="1" connectable="0" parent="DmKBOVWt1Hb8cWZtH86P-24">
          <mxGeometry x="-0.1181" y="-1" relative="1" as="geometry">
            <mxPoint as="offset" />
          </mxGeometry>
        </mxCell>
        <mxCell id="DmKBOVWt1Hb8cWZtH86P-29" value="" style="shape=flexArrow;endArrow=classic;html=1;rounded=0;endWidth=28.23529411764706;endSize=7.007843137254903;width=18.823529411764707;fillColor=default;fillStyle=auto;" edge="1" parent="1">
          <mxGeometry width="50" height="50" relative="1" as="geometry">
            <mxPoint x="156" y="184.8" as="sourcePoint" />
            <mxPoint x="253" y="184.8" as="targetPoint" />
          </mxGeometry>
        </mxCell>
        <mxCell id="DmKBOVWt1Hb8cWZtH86P-31" value="push(&quot;ABC&quot;)" style="edgeLabel;html=1;align=center;verticalAlign=middle;resizable=0;points=[];labelBackgroundColor=default;" vertex="1" connectable="0" parent="DmKBOVWt1Hb8cWZtH86P-29">
          <mxGeometry x="-0.0628" y="1" relative="1" as="geometry">
            <mxPoint as="offset" />
          </mxGeometry>
        </mxCell>
        <mxCell id="DmKBOVWt1Hb8cWZtH86P-33" value="" style="shape=flexArrow;endArrow=classic;html=1;rounded=0;endWidth=28.23529411764706;endSize=7.007843137254903;width=18.823529411764707;labelBackgroundColor=none;fillColor=default;" edge="1" parent="1">
          <mxGeometry width="50" height="50" relative="1" as="geometry">
            <mxPoint x="509.66999999999996" y="230" as="sourcePoint" />
            <mxPoint x="510" y="280" as="targetPoint" />
          </mxGeometry>
        </mxCell>
        <mxCell id="DmKBOVWt1Hb8cWZtH86P-34" value="push(&quot;FOO&quot;)" style="edgeLabel;html=1;align=center;verticalAlign=middle;resizable=0;points=[];" vertex="1" connectable="0" parent="DmKBOVWt1Hb8cWZtH86P-33">
          <mxGeometry x="-0.1181" y="-1" relative="1" as="geometry">
            <mxPoint y="-10" as="offset" />
          </mxGeometry>
        </mxCell>
        <mxCell id="DmKBOVWt1Hb8cWZtH86P-37" value="" style="shape=flexArrow;endArrow=classic;html=1;rounded=0;endWidth=28.23529411764706;endSize=7.007843137254903;width=18.823529411764707;fillColor=default;" edge="1" parent="1">
          <mxGeometry width="50" height="50" relative="1" as="geometry">
            <mxPoint x="452" y="374.66999999999996" as="sourcePoint" />
            <mxPoint x="357" y="375" as="targetPoint" />
          </mxGeometry>
        </mxCell>
        <mxCell id="DmKBOVWt1Hb8cWZtH86P-38" value="pop()" style="edgeLabel;html=1;align=center;verticalAlign=middle;resizable=0;points=[];labelBackgroundColor=default;" vertex="1" connectable="0" parent="DmKBOVWt1Hb8cWZtH86P-37">
          <mxGeometry x="-0.1181" y="-1" relative="1" as="geometry">
            <mxPoint as="offset" />
          </mxGeometry>
        </mxCell>
        <mxCell id="DmKBOVWt1Hb8cWZtH86P-53" value="" style="shape=flexArrow;endArrow=classic;html=1;rounded=0;endWidth=28.23529411764706;endSize=7.007843137254903;width=18.823529411764707;fillColor=default;" edge="1" parent="1">
          <mxGeometry width="50" height="50" relative="1" as="geometry">
            <mxPoint x="247" y="379.66999999999996" as="sourcePoint" />
            <mxPoint x="152" y="380" as="targetPoint" />
          </mxGeometry>
        </mxCell>
        <mxCell id="DmKBOVWt1Hb8cWZtH86P-54" value="push(&quot;BAR&quot;)" style="edgeLabel;html=1;align=center;verticalAlign=middle;resizable=0;points=[];labelBackgroundColor=default;" vertex="1" connectable="0" parent="DmKBOVWt1Hb8cWZtH86P-53">
          <mxGeometry x="-0.1181" y="-1" relative="1" as="geometry">
            <mxPoint as="offset" />
          </mxGeometry>
        </mxCell>
        <mxCell id="DmKBOVWt1Hb8cWZtH86P-171" value="Passo 2" style="text;html=1;align=center;verticalAlign=middle;whiteSpace=wrap;rounded=0;" vertex="1" parent="1">
          <mxGeometry x="280" y="50" width="50" height="20" as="geometry" />
        </mxCell>
        <mxCell id="DmKBOVWt1Hb8cWZtH86P-173" value="Passo 3" style="text;html=1;align=center;verticalAlign=middle;whiteSpace=wrap;rounded=0;" vertex="1" parent="1">
          <mxGeometry x="486.01" y="50" width="50" height="20" as="geometry" />
        </mxCell>
        <mxCell id="DmKBOVWt1Hb8cWZtH86P-174" value="Passo 4" style="text;html=1;align=center;verticalAlign=middle;whiteSpace=wrap;rounded=0;" vertex="1" parent="1">
          <mxGeometry x="486.01" y="455" width="50" height="20" as="geometry" />
        </mxCell>
        <mxCell id="DmKBOVWt1Hb8cWZtH86P-175" value="Passo 5" style="text;html=1;align=center;verticalAlign=middle;whiteSpace=wrap;rounded=0;" vertex="1" parent="1">
          <mxGeometry x="280" y="455" width="50" height="20" as="geometry" />
        </mxCell>
        <mxCell id="DmKBOVWt1Hb8cWZtH86P-176" value="Passo 6" style="text;html=1;align=center;verticalAlign=middle;whiteSpace=wrap;rounded=0;" vertex="1" parent="1">
          <mxGeometry x="75.00999999999999" y="455" width="50" height="20" as="geometry" />
        </mxCell>
        <mxCell id="DmKBOVWt1Hb8cWZtH86P-179" value="" style="group" vertex="1" connectable="0" parent="1">
          <mxGeometry x="50" y="280" width="100" height="170" as="geometry" />
        </mxCell>
        <mxCell id="DmKBOVWt1Hb8cWZtH86P-215" value="" style="group" vertex="1" connectable="0" parent="DmKBOVWt1Hb8cWZtH86P-179">
          <mxGeometry width="100" height="170" as="geometry" />
        </mxCell>
        <mxCell id="DmKBOVWt1Hb8cWZtH86P-55" value="&quot;XYZ&quot;" style="rounded=1;whiteSpace=wrap;html=1;fillColor=#e1d5e7;strokeColor=#9673a6;" vertex="1" parent="DmKBOVWt1Hb8cWZtH86P-215">
          <mxGeometry x="10" y="70" width="80" height="40" as="geometry" />
        </mxCell>
        <mxCell id="DmKBOVWt1Hb8cWZtH86P-56" value="&quot;ABC&quot;" style="rounded=1;whiteSpace=wrap;html=1;fillColor=#f8cecc;strokeColor=#b85450;" vertex="1" parent="DmKBOVWt1Hb8cWZtH86P-215">
          <mxGeometry x="10" y="120" width="80" height="40" as="geometry" />
        </mxCell>
        <mxCell id="DmKBOVWt1Hb8cWZtH86P-57" value="" style="group" vertex="1" connectable="0" parent="DmKBOVWt1Hb8cWZtH86P-215">
          <mxGeometry width="100" height="170" as="geometry" />
        </mxCell>
        <mxCell id="DmKBOVWt1Hb8cWZtH86P-58" value="" style="endArrow=none;html=1;rounded=0;strokeWidth=5;" edge="1" parent="DmKBOVWt1Hb8cWZtH86P-57">
          <mxGeometry width="50" height="50" relative="1" as="geometry">
            <mxPoint y="170" as="sourcePoint" />
            <mxPoint as="targetPoint" />
          </mxGeometry>
        </mxCell>
        <mxCell id="DmKBOVWt1Hb8cWZtH86P-59" value="" style="endArrow=oval;html=1;rounded=0;strokeWidth=5;startArrow=oval;startFill=1;endFill=1;" edge="1" parent="DmKBOVWt1Hb8cWZtH86P-57">
          <mxGeometry width="50" height="50" relative="1" as="geometry">
            <mxPoint y="170" as="sourcePoint" />
            <mxPoint x="100" y="170" as="targetPoint" />
          </mxGeometry>
        </mxCell>
        <mxCell id="DmKBOVWt1Hb8cWZtH86P-60" value="" style="endArrow=none;html=1;rounded=0;strokeWidth=5;" edge="1" parent="DmKBOVWt1Hb8cWZtH86P-57">
          <mxGeometry width="50" height="50" relative="1" as="geometry">
            <mxPoint x="100" as="sourcePoint" />
            <mxPoint x="100" y="170" as="targetPoint" />
          </mxGeometry>
        </mxCell>
        <mxCell id="DmKBOVWt1Hb8cWZtH86P-61" value="&quot;BAR&quot;" style="rounded=1;whiteSpace=wrap;html=1;fillColor=#dae8fc;strokeColor=#6c8ebf;" vertex="1" parent="DmKBOVWt1Hb8cWZtH86P-57">
          <mxGeometry x="10" y="21" width="80" height="40" as="geometry" />
        </mxCell>
        <mxCell id="DmKBOVWt1Hb8cWZtH86P-170" value="Passo 1" style="text;html=1;align=center;verticalAlign=middle;whiteSpace=wrap;rounded=0;" vertex="1" parent="1">
          <mxGeometry x="75" y="50" width="50" height="20" as="geometry" />
        </mxCell>
        <mxCell id="DmKBOVWt1Hb8cWZtH86P-195" value="" style="group" vertex="1" connectable="0" parent="1">
          <mxGeometry x="50" y="50" width="100" height="170" as="geometry" />
        </mxCell>
        <mxCell id="QosCXspa3jDB6QgWmCib-11" value="" style="endArrow=none;html=1;rounded=0;strokeWidth=5;" parent="DmKBOVWt1Hb8cWZtH86P-195" edge="1">
          <mxGeometry width="50" height="50" relative="1" as="geometry">
            <mxPoint y="170" as="sourcePoint" />
            <mxPoint as="targetPoint" />
          </mxGeometry>
        </mxCell>
        <mxCell id="QosCXspa3jDB6QgWmCib-12" value="" style="endArrow=oval;html=1;rounded=0;strokeWidth=5;startArrow=oval;startFill=1;endFill=1;" parent="DmKBOVWt1Hb8cWZtH86P-195" edge="1">
          <mxGeometry width="50" height="50" relative="1" as="geometry">
            <mxPoint y="170" as="sourcePoint" />
            <mxPoint x="100" y="170" as="targetPoint" />
          </mxGeometry>
        </mxCell>
        <mxCell id="QosCXspa3jDB6QgWmCib-13" value="" style="endArrow=none;html=1;rounded=0;strokeWidth=5;" parent="DmKBOVWt1Hb8cWZtH86P-195" edge="1">
          <mxGeometry width="50" height="50" relative="1" as="geometry">
            <mxPoint x="100" as="sourcePoint" />
            <mxPoint x="100" y="170" as="targetPoint" />
          </mxGeometry>
        </mxCell>
        <mxCell id="DmKBOVWt1Hb8cWZtH86P-196" value="" style="group" vertex="1" connectable="0" parent="1">
          <mxGeometry x="255" y="50" width="100" height="170" as="geometry" />
        </mxCell>
        <mxCell id="QosCXspa3jDB6QgWmCib-7" value="&quot;ABC&quot;" style="rounded=1;whiteSpace=wrap;html=1;fillColor=#f8cecc;strokeColor=#b85450;" parent="DmKBOVWt1Hb8cWZtH86P-196" vertex="1">
          <mxGeometry x="10" y="120" width="80" height="40" as="geometry" />
        </mxCell>
        <mxCell id="DmKBOVWt1Hb8cWZtH86P-2" value="" style="group" vertex="1" connectable="0" parent="DmKBOVWt1Hb8cWZtH86P-196">
          <mxGeometry width="100" height="170" as="geometry" />
        </mxCell>
        <mxCell id="DmKBOVWt1Hb8cWZtH86P-3" value="" style="endArrow=none;html=1;rounded=0;strokeWidth=5;" edge="1" parent="DmKBOVWt1Hb8cWZtH86P-2">
          <mxGeometry width="50" height="50" relative="1" as="geometry">
            <mxPoint y="170" as="sourcePoint" />
            <mxPoint as="targetPoint" />
          </mxGeometry>
        </mxCell>
        <mxCell id="DmKBOVWt1Hb8cWZtH86P-4" value="" style="endArrow=oval;html=1;rounded=0;strokeWidth=5;startArrow=oval;startFill=1;endFill=1;" edge="1" parent="DmKBOVWt1Hb8cWZtH86P-2">
          <mxGeometry width="50" height="50" relative="1" as="geometry">
            <mxPoint y="170" as="sourcePoint" />
            <mxPoint x="100" y="170" as="targetPoint" />
          </mxGeometry>
        </mxCell>
        <mxCell id="DmKBOVWt1Hb8cWZtH86P-5" value="" style="endArrow=none;html=1;rounded=0;strokeWidth=5;" edge="1" parent="DmKBOVWt1Hb8cWZtH86P-2">
          <mxGeometry width="50" height="50" relative="1" as="geometry">
            <mxPoint x="100" as="sourcePoint" />
            <mxPoint x="100" y="170" as="targetPoint" />
          </mxGeometry>
        </mxCell>
        <mxCell id="DmKBOVWt1Hb8cWZtH86P-197" value="" style="group" vertex="1" connectable="0" parent="1">
          <mxGeometry x="460" y="50" width="100" height="170" as="geometry" />
        </mxCell>
        <mxCell id="QosCXspa3jDB6QgWmCib-14" value="&quot;ABC&quot;" style="rounded=1;whiteSpace=wrap;html=1;fillColor=#f8cecc;strokeColor=#b85450;" parent="DmKBOVWt1Hb8cWZtH86P-197" vertex="1">
          <mxGeometry x="10" y="120" width="80" height="40" as="geometry" />
        </mxCell>
        <mxCell id="QosCXspa3jDB6QgWmCib-19" value="&quot;XYZ&quot;" style="rounded=1;whiteSpace=wrap;html=1;fillColor=#e1d5e7;strokeColor=#9673a6;" parent="DmKBOVWt1Hb8cWZtH86P-197" vertex="1">
          <mxGeometry x="10" y="70" width="80" height="40" as="geometry" />
        </mxCell>
        <mxCell id="DmKBOVWt1Hb8cWZtH86P-6" value="" style="group" vertex="1" connectable="0" parent="DmKBOVWt1Hb8cWZtH86P-197">
          <mxGeometry width="100" height="170" as="geometry" />
        </mxCell>
        <mxCell id="DmKBOVWt1Hb8cWZtH86P-7" value="" style="endArrow=none;html=1;rounded=0;strokeWidth=5;" edge="1" parent="DmKBOVWt1Hb8cWZtH86P-6">
          <mxGeometry width="50" height="50" relative="1" as="geometry">
            <mxPoint y="170" as="sourcePoint" />
            <mxPoint as="targetPoint" />
          </mxGeometry>
        </mxCell>
        <mxCell id="DmKBOVWt1Hb8cWZtH86P-8" value="" style="endArrow=oval;html=1;rounded=0;strokeWidth=5;startArrow=oval;startFill=1;endFill=1;" edge="1" parent="DmKBOVWt1Hb8cWZtH86P-6">
          <mxGeometry width="50" height="50" relative="1" as="geometry">
            <mxPoint y="170" as="sourcePoint" />
            <mxPoint x="100" y="170" as="targetPoint" />
          </mxGeometry>
        </mxCell>
        <mxCell id="DmKBOVWt1Hb8cWZtH86P-9" value="" style="endArrow=none;html=1;rounded=0;strokeWidth=5;" edge="1" parent="DmKBOVWt1Hb8cWZtH86P-6">
          <mxGeometry width="50" height="50" relative="1" as="geometry">
            <mxPoint x="100" as="sourcePoint" />
            <mxPoint x="100" y="170" as="targetPoint" />
          </mxGeometry>
        </mxCell>
        <mxCell id="DmKBOVWt1Hb8cWZtH86P-213" value="" style="group" vertex="1" connectable="0" parent="1">
          <mxGeometry x="460" y="280" width="100" height="170" as="geometry" />
        </mxCell>
        <mxCell id="QosCXspa3jDB6QgWmCib-33" value="&quot;XYZ&quot;" style="rounded=1;whiteSpace=wrap;html=1;fillColor=#e1d5e7;strokeColor=#9673a6;" parent="DmKBOVWt1Hb8cWZtH86P-213" vertex="1">
          <mxGeometry x="10" y="70" width="80" height="40" as="geometry" />
        </mxCell>
        <mxCell id="QosCXspa3jDB6QgWmCib-34" value="&quot;ABC&quot;" style="rounded=1;whiteSpace=wrap;html=1;fillColor=#f8cecc;strokeColor=#b85450;" parent="DmKBOVWt1Hb8cWZtH86P-213" vertex="1">
          <mxGeometry x="10" y="120" width="80" height="40" as="geometry" />
        </mxCell>
        <mxCell id="QosCXspa3jDB6QgWmCib-35" value="&quot;FOO&quot;" style="rounded=1;whiteSpace=wrap;html=1;fillColor=#d5e8d4;strokeColor=#82b366;" parent="DmKBOVWt1Hb8cWZtH86P-213" vertex="1">
          <mxGeometry x="10" y="20" width="80" height="40" as="geometry" />
        </mxCell>
        <mxCell id="DmKBOVWt1Hb8cWZtH86P-18" value="" style="group" vertex="1" connectable="0" parent="DmKBOVWt1Hb8cWZtH86P-213">
          <mxGeometry width="100" height="170" as="geometry" />
        </mxCell>
        <mxCell id="DmKBOVWt1Hb8cWZtH86P-19" value="" style="endArrow=none;html=1;rounded=0;strokeWidth=5;" edge="1" parent="DmKBOVWt1Hb8cWZtH86P-18">
          <mxGeometry width="50" height="50" relative="1" as="geometry">
            <mxPoint y="170" as="sourcePoint" />
            <mxPoint as="targetPoint" />
          </mxGeometry>
        </mxCell>
        <mxCell id="DmKBOVWt1Hb8cWZtH86P-20" value="" style="endArrow=oval;html=1;rounded=0;strokeWidth=5;startArrow=oval;startFill=1;endFill=1;" edge="1" parent="DmKBOVWt1Hb8cWZtH86P-18">
          <mxGeometry width="50" height="50" relative="1" as="geometry">
            <mxPoint y="170" as="sourcePoint" />
            <mxPoint x="100" y="170" as="targetPoint" />
          </mxGeometry>
        </mxCell>
        <mxCell id="DmKBOVWt1Hb8cWZtH86P-21" value="" style="endArrow=none;html=1;rounded=0;strokeWidth=5;" edge="1" parent="DmKBOVWt1Hb8cWZtH86P-18">
          <mxGeometry width="50" height="50" relative="1" as="geometry">
            <mxPoint x="100" as="sourcePoint" />
            <mxPoint x="100" y="170" as="targetPoint" />
          </mxGeometry>
        </mxCell>
        <mxCell id="DmKBOVWt1Hb8cWZtH86P-214" value="" style="group" vertex="1" connectable="0" parent="1">
          <mxGeometry x="255" y="280" width="100" height="170" as="geometry" />
        </mxCell>
        <mxCell id="DmKBOVWt1Hb8cWZtH86P-47" value="&quot;XYZ&quot;" style="rounded=1;whiteSpace=wrap;html=1;fillColor=#e1d5e7;strokeColor=#9673a6;" vertex="1" parent="DmKBOVWt1Hb8cWZtH86P-214">
          <mxGeometry x="10" y="70" width="80" height="40" as="geometry" />
        </mxCell>
        <mxCell id="DmKBOVWt1Hb8cWZtH86P-48" value="&quot;ABC&quot;" style="rounded=1;whiteSpace=wrap;html=1;fillColor=#f8cecc;strokeColor=#b85450;" vertex="1" parent="DmKBOVWt1Hb8cWZtH86P-214">
          <mxGeometry x="10" y="120" width="80" height="40" as="geometry" />
        </mxCell>
        <mxCell id="DmKBOVWt1Hb8cWZtH86P-49" value="" style="group" vertex="1" connectable="0" parent="DmKBOVWt1Hb8cWZtH86P-214">
          <mxGeometry width="100" height="170" as="geometry" />
        </mxCell>
        <mxCell id="DmKBOVWt1Hb8cWZtH86P-50" value="" style="endArrow=none;html=1;rounded=0;strokeWidth=5;" edge="1" parent="DmKBOVWt1Hb8cWZtH86P-49">
          <mxGeometry width="50" height="50" relative="1" as="geometry">
            <mxPoint y="170" as="sourcePoint" />
            <mxPoint as="targetPoint" />
          </mxGeometry>
        </mxCell>
        <mxCell id="DmKBOVWt1Hb8cWZtH86P-51" value="" style="endArrow=oval;html=1;rounded=0;strokeWidth=5;startArrow=oval;startFill=1;endFill=1;" edge="1" parent="DmKBOVWt1Hb8cWZtH86P-49">
          <mxGeometry width="50" height="50" relative="1" as="geometry">
            <mxPoint y="170" as="sourcePoint" />
            <mxPoint x="100" y="170" as="targetPoint" />
          </mxGeometry>
        </mxCell>
        <mxCell id="DmKBOVWt1Hb8cWZtH86P-52" value="" style="endArrow=none;html=1;rounded=0;strokeWidth=5;" edge="1" parent="DmKBOVWt1Hb8cWZtH86P-49">
          <mxGeometry width="50" height="50" relative="1" as="geometry">
            <mxPoint x="100" as="sourcePoint" />
            <mxPoint x="100" y="170" as="targetPoint" />
          </mxGeometry>
        </mxCell>
        <mxCell id="DmKBOVWt1Hb8cWZtH86P-225" value="&quot;FOO&quot;" style="text;html=1;align=center;verticalAlign=middle;whiteSpace=wrap;rounded=0;" vertex="1" parent="1">
          <mxGeometry x="390" y="390" width="50" height="20" as="geometry" />
        </mxCell>
        <mxCell id="DmKBOVWt1Hb8cWZtH86P-89" value="" style="shape=flexArrow;endArrow=classic;html=1;rounded=0;endWidth=28.23529411764706;endSize=7.007843137254903;width=18.823529411764707;labelBackgroundColor=none;fillColor=default;" edge="1" parent="1">
          <mxGeometry width="50" height="50" relative="1" as="geometry">
            <mxPoint x="238.49542857142856" y="550.0007692307693" as="sourcePoint" />
            <mxPoint x="340" y="550" as="targetPoint" />
          </mxGeometry>
        </mxCell>
        <mxCell id="DmKBOVWt1Hb8cWZtH86P-90" value="enqueue(&quot;ABC&quot;)" style="edgeLabel;html=1;align=center;verticalAlign=middle;resizable=0;points=[];" vertex="1" connectable="0" parent="DmKBOVWt1Hb8cWZtH86P-89">
          <mxGeometry x="-0.1181" y="-1" relative="1" as="geometry">
            <mxPoint x="4" y="-2" as="offset" />
          </mxGeometry>
        </mxCell>
        <mxCell id="DmKBOVWt1Hb8cWZtH86P-98" value="" style="shape=flexArrow;endArrow=classic;html=1;rounded=0;endWidth=28.23529411764706;endSize=7.007843137254903;width=18.823529411764707;labelBackgroundColor=none;fillColor=default;" edge="1" parent="1">
          <mxGeometry width="50" height="50" relative="1" as="geometry">
            <mxPoint x="450.3854285714286" y="590.0007692307692" as="sourcePoint" />
            <mxPoint x="451" y="670" as="targetPoint" />
          </mxGeometry>
        </mxCell>
        <mxCell id="DmKBOVWt1Hb8cWZtH86P-99" value="enqueue(&quot;XYZ&quot;)" style="edgeLabel;html=1;align=center;verticalAlign=middle;resizable=0;points=[];" vertex="1" connectable="0" parent="DmKBOVWt1Hb8cWZtH86P-98">
          <mxGeometry x="-0.1181" y="-1" relative="1" as="geometry">
            <mxPoint y="-10" as="offset" />
          </mxGeometry>
        </mxCell>
        <mxCell id="DmKBOVWt1Hb8cWZtH86P-123" value="" style="group" vertex="1" connectable="0" parent="1">
          <mxGeometry x="349.99615384615396" y="522.0038461538462" width="193.54835164835157" height="55.84615384615381" as="geometry" />
        </mxCell>
        <mxCell id="DmKBOVWt1Hb8cWZtH86P-91" value="" style="group;fillColor=#b0b0b0;fillStyle=hatch;" vertex="1" connectable="0" parent="DmKBOVWt1Hb8cWZtH86P-123">
          <mxGeometry x="10.15439641839643" width="170.8565925925925" height="55.84615384615384" as="geometry" />
        </mxCell>
        <mxCell id="DmKBOVWt1Hb8cWZtH86P-92" value="" style="endArrow=none;html=1;rounded=0;strokeWidth=5;" edge="1" parent="DmKBOVWt1Hb8cWZtH86P-91">
          <mxGeometry width="50" height="50" relative="1" as="geometry">
            <mxPoint as="sourcePoint" />
            <mxPoint x="170.8565925925925" as="targetPoint" />
          </mxGeometry>
        </mxCell>
        <mxCell id="DmKBOVWt1Hb8cWZtH86P-93" value="" style="endArrow=none;html=1;rounded=0;strokeWidth=5;" edge="1" parent="DmKBOVWt1Hb8cWZtH86P-91">
          <mxGeometry width="50" height="50" relative="1" as="geometry">
            <mxPoint x="170.8565925925925" y="55.84615384615384" as="sourcePoint" />
            <mxPoint y="55.84615384615384" as="targetPoint" />
          </mxGeometry>
        </mxCell>
        <mxCell id="DmKBOVWt1Hb8cWZtH86P-97" value="&quot;ABC&quot;" style="rounded=1;whiteSpace=wrap;html=1;fillColor=#f8cecc;strokeColor=#b85450;" vertex="1" parent="DmKBOVWt1Hb8cWZtH86P-91">
          <mxGeometry x="103.99944973544966" y="7.615384615384614" width="59.42857142857144" height="40.61538461538461" as="geometry" />
        </mxCell>
        <mxCell id="DmKBOVWt1Hb8cWZtH86P-94" value="Saída" style="text;html=1;align=center;verticalAlign=middle;whiteSpace=wrap;rounded=0;rotation=90;" vertex="1" parent="DmKBOVWt1Hb8cWZtH86P-123">
          <mxGeometry x="165.41098901098894" y="16.5" width="33.42857142857143" height="22.846153846153843" as="geometry" />
        </mxCell>
        <mxCell id="DmKBOVWt1Hb8cWZtH86P-95" value="Entrada" style="text;html=1;align=center;verticalAlign=middle;whiteSpace=wrap;rounded=0;rotation=90;" vertex="1" parent="DmKBOVWt1Hb8cWZtH86P-123">
          <mxGeometry x="-4.703296703296786" y="19.038461538461434" width="29.714285714285715" height="20.307692307692307" as="geometry" />
        </mxCell>
        <mxCell id="DmKBOVWt1Hb8cWZtH86P-125" value="" style="group" vertex="1" connectable="0" parent="1">
          <mxGeometry x="44.706153846153924" y="523.2" width="193.54835164835157" height="55.84615384615381" as="geometry" />
        </mxCell>
        <mxCell id="DmKBOVWt1Hb8cWZtH86P-77" value="" style="group;fillColor=#b0b0b0;fillStyle=hatch;" vertex="1" connectable="0" parent="DmKBOVWt1Hb8cWZtH86P-125">
          <mxGeometry x="10.15439641839643" width="170.8565925925925" height="55.84615384615384" as="geometry" />
        </mxCell>
        <mxCell id="DmKBOVWt1Hb8cWZtH86P-65" value="" style="endArrow=none;html=1;rounded=0;strokeWidth=5;" edge="1" parent="DmKBOVWt1Hb8cWZtH86P-77">
          <mxGeometry width="50" height="50" relative="1" as="geometry">
            <mxPoint as="sourcePoint" />
            <mxPoint x="170.8565925925925" as="targetPoint" />
          </mxGeometry>
        </mxCell>
        <mxCell id="DmKBOVWt1Hb8cWZtH86P-67" value="" style="endArrow=none;html=1;rounded=0;strokeWidth=5;" edge="1" parent="DmKBOVWt1Hb8cWZtH86P-77">
          <mxGeometry width="50" height="50" relative="1" as="geometry">
            <mxPoint x="170.8565925925925" y="55.84615384615384" as="sourcePoint" />
            <mxPoint y="55.84615384615384" as="targetPoint" />
          </mxGeometry>
        </mxCell>
        <mxCell id="DmKBOVWt1Hb8cWZtH86P-79" value="Entrada" style="text;html=1;align=center;verticalAlign=middle;whiteSpace=wrap;rounded=0;rotation=90;" vertex="1" parent="DmKBOVWt1Hb8cWZtH86P-125">
          <mxGeometry x="-4.703296703296786" y="19.038461538461434" width="29.714285714285715" height="20.307692307692307" as="geometry" />
        </mxCell>
        <mxCell id="DmKBOVWt1Hb8cWZtH86P-78" value="Saída" style="text;html=1;align=center;verticalAlign=middle;whiteSpace=wrap;rounded=0;rotation=90;" vertex="1" parent="DmKBOVWt1Hb8cWZtH86P-125">
          <mxGeometry x="165.41098901098894" y="16.5" width="33.42857142857143" height="22.846153846153843" as="geometry" />
        </mxCell>
        <mxCell id="DmKBOVWt1Hb8cWZtH86P-126" value="" style="shape=flexArrow;endArrow=classic;html=1;rounded=0;endWidth=28.23529411764706;endSize=7.007843137254903;width=18.823529411764707;labelBackgroundColor=none;fillColor=default;" edge="1" parent="1">
          <mxGeometry width="50" height="50" relative="1" as="geometry">
            <mxPoint x="344.99542857142853" y="708.1507692307692" as="sourcePoint" />
            <mxPoint x="240" y="708" as="targetPoint" />
          </mxGeometry>
        </mxCell>
        <mxCell id="DmKBOVWt1Hb8cWZtH86P-127" value="enqueue(&quot;FOO&quot;)" style="edgeLabel;html=1;align=center;verticalAlign=middle;resizable=0;points=[];" vertex="1" connectable="0" parent="DmKBOVWt1Hb8cWZtH86P-126">
          <mxGeometry x="-0.1181" y="-1" relative="1" as="geometry">
            <mxPoint x="4" y="-2" as="offset" />
          </mxGeometry>
        </mxCell>
        <mxCell id="DmKBOVWt1Hb8cWZtH86P-146" value="" style="shape=flexArrow;endArrow=classic;html=1;rounded=0;endWidth=28.23529411764706;endSize=7.007843137254903;width=18.823529411764707;labelBackgroundColor=none;fillColor=default;" edge="1" parent="1">
          <mxGeometry width="50" height="50" relative="1" as="geometry">
            <mxPoint x="149.47542857142855" y="750.0007692307692" as="sourcePoint" />
            <mxPoint x="150" y="830" as="targetPoint" />
          </mxGeometry>
        </mxCell>
        <mxCell id="DmKBOVWt1Hb8cWZtH86P-147" value="dequeue()" style="edgeLabel;html=1;align=center;verticalAlign=middle;resizable=0;points=[];" vertex="1" connectable="0" parent="DmKBOVWt1Hb8cWZtH86P-146">
          <mxGeometry x="-0.1181" y="-1" relative="1" as="geometry">
            <mxPoint y="-10" as="offset" />
          </mxGeometry>
        </mxCell>
        <mxCell id="DmKBOVWt1Hb8cWZtH86P-168" value="" style="shape=flexArrow;endArrow=classic;html=1;rounded=0;endWidth=28.23529411764706;endSize=7.007843137254903;width=18.823529411764707;labelBackgroundColor=none;fillColor=default;" edge="1" parent="1">
          <mxGeometry width="50" height="50" relative="1" as="geometry">
            <mxPoint x="247.29542857142857" y="868.4007692307692" as="sourcePoint" />
            <mxPoint x="348.8" y="868.4" as="targetPoint" />
          </mxGeometry>
        </mxCell>
        <mxCell id="DmKBOVWt1Hb8cWZtH86P-169" value="enqueue(&quot;BAR&quot;)" style="edgeLabel;html=1;align=center;verticalAlign=middle;resizable=0;points=[];" vertex="1" connectable="0" parent="DmKBOVWt1Hb8cWZtH86P-168">
          <mxGeometry x="-0.1181" y="-1" relative="1" as="geometry">
            <mxPoint x="4" y="-2" as="offset" />
          </mxGeometry>
        </mxCell>
        <mxCell id="DmKBOVWt1Hb8cWZtH86P-185" value="Passo 1" style="text;html=1;align=center;verticalAlign=middle;whiteSpace=wrap;rounded=0;" vertex="1" parent="1">
          <mxGeometry x="110" y="502" width="50" height="20" as="geometry" />
        </mxCell>
        <mxCell id="DmKBOVWt1Hb8cWZtH86P-186" value="Passo 2" style="text;html=1;align=center;verticalAlign=middle;whiteSpace=wrap;rounded=0;" vertex="1" parent="1">
          <mxGeometry x="419.87" y="502" width="50" height="20" as="geometry" />
        </mxCell>
        <mxCell id="DmKBOVWt1Hb8cWZtH86P-187" value="Passo 3" style="text;html=1;align=center;verticalAlign=middle;whiteSpace=wrap;rounded=0;" vertex="1" parent="1">
          <mxGeometry x="421.77" y="740" width="50" height="20" as="geometry" />
        </mxCell>
        <mxCell id="DmKBOVWt1Hb8cWZtH86P-188" value="Passo 4" style="text;html=1;align=center;verticalAlign=middle;whiteSpace=wrap;rounded=0;" vertex="1" parent="1">
          <mxGeometry x="110" y="660" width="50" height="20" as="geometry" />
        </mxCell>
        <mxCell id="DmKBOVWt1Hb8cWZtH86P-189" value="Passo 5" style="text;html=1;align=center;verticalAlign=middle;whiteSpace=wrap;rounded=0;" vertex="1" parent="1">
          <mxGeometry x="110" y="895.85" width="50" height="20" as="geometry" />
        </mxCell>
        <mxCell id="DmKBOVWt1Hb8cWZtH86P-190" value="Passo 6" style="text;html=1;align=center;verticalAlign=middle;whiteSpace=wrap;rounded=0;" vertex="1" parent="1">
          <mxGeometry x="421.77" y="895.85" width="50" height="20" as="geometry" />
        </mxCell>
        <mxCell id="DmKBOVWt1Hb8cWZtH86P-226" value="&quot;ABC&quot;" style="text;html=1;align=center;verticalAlign=middle;whiteSpace=wrap;rounded=0;" vertex="1" parent="1">
          <mxGeometry x="175" y="780" width="50" height="20" as="geometry" />
        </mxCell>
        <mxCell id="DmKBOVWt1Hb8cWZtH86P-238" value="" style="group" vertex="1" connectable="0" parent="1">
          <mxGeometry x="354.99615384615396" y="680.9238461538462" width="193.54835164835146" height="55.84615384615381" as="geometry" />
        </mxCell>
        <mxCell id="DmKBOVWt1Hb8cWZtH86P-101" value="" style="group;fillColor=#b0b0b0;fillStyle=hatch;" vertex="1" connectable="0" parent="DmKBOVWt1Hb8cWZtH86P-238">
          <mxGeometry x="10.154396418396402" width="170.8565925925925" height="55.84615384615384" as="geometry" />
        </mxCell>
        <mxCell id="DmKBOVWt1Hb8cWZtH86P-102" value="" style="endArrow=none;html=1;rounded=0;strokeWidth=5;" edge="1" parent="DmKBOVWt1Hb8cWZtH86P-101">
          <mxGeometry width="50" height="50" relative="1" as="geometry">
            <mxPoint as="sourcePoint" />
            <mxPoint x="170.8565925925925" as="targetPoint" />
          </mxGeometry>
        </mxCell>
        <mxCell id="DmKBOVWt1Hb8cWZtH86P-103" value="" style="endArrow=none;html=1;rounded=0;strokeWidth=5;" edge="1" parent="DmKBOVWt1Hb8cWZtH86P-101">
          <mxGeometry width="50" height="50" relative="1" as="geometry">
            <mxPoint x="170.8565925925925" y="55.84615384615384" as="sourcePoint" />
            <mxPoint y="55.84615384615384" as="targetPoint" />
          </mxGeometry>
        </mxCell>
        <mxCell id="DmKBOVWt1Hb8cWZtH86P-104" value="&quot;ABC&quot;" style="rounded=1;whiteSpace=wrap;html=1;fillColor=#f8cecc;strokeColor=#b85450;" vertex="1" parent="DmKBOVWt1Hb8cWZtH86P-101">
          <mxGeometry x="103.99944973544966" y="7.615384615384614" width="59.42857142857144" height="40.61538461538461" as="geometry" />
        </mxCell>
        <mxCell id="DmKBOVWt1Hb8cWZtH86P-111" value="&quot;XYZ&quot;" style="rounded=1;whiteSpace=wrap;html=1;fillColor=#e1d5e7;strokeColor=#9673a6;" vertex="1" parent="DmKBOVWt1Hb8cWZtH86P-101">
          <mxGeometry x="37.14230687830679" y="7.615384615384614" width="59.42857142857144" height="40.61538461538461" as="geometry" />
        </mxCell>
        <mxCell id="DmKBOVWt1Hb8cWZtH86P-100" value="Saída" style="text;html=1;align=center;verticalAlign=middle;whiteSpace=wrap;rounded=0;rotation=90;" vertex="1" parent="DmKBOVWt1Hb8cWZtH86P-238">
          <mxGeometry x="165.41098901098889" y="16.499999999999886" width="33.42857142857143" height="22.846153846153843" as="geometry" />
        </mxCell>
        <mxCell id="DmKBOVWt1Hb8cWZtH86P-105" value="Entrada" style="text;html=1;align=center;verticalAlign=middle;whiteSpace=wrap;rounded=0;rotation=90;" vertex="1" parent="DmKBOVWt1Hb8cWZtH86P-238">
          <mxGeometry x="-4.703296703296758" y="19.038461538461434" width="29.714285714285715" height="20.307692307692307" as="geometry" />
        </mxCell>
        <mxCell id="DmKBOVWt1Hb8cWZtH86P-239" value="" style="group" vertex="1" connectable="0" parent="1">
          <mxGeometry x="49.99615384615396" y="680.0038461538462" width="193.54835164835157" height="55.84615384615381" as="geometry" />
        </mxCell>
        <mxCell id="DmKBOVWt1Hb8cWZtH86P-137" value="" style="group" vertex="1" connectable="0" parent="DmKBOVWt1Hb8cWZtH86P-239">
          <mxGeometry width="181.01098901098894" height="55.84615384615381" as="geometry" />
        </mxCell>
        <mxCell id="DmKBOVWt1Hb8cWZtH86P-129" value="" style="group;fillColor=#b0b0b0;fillStyle=hatch;container=0;" vertex="1" connectable="0" parent="DmKBOVWt1Hb8cWZtH86P-137">
          <mxGeometry x="10.15439641839643" width="170.8565925925925" height="55.84615384615384" as="geometry" />
        </mxCell>
        <mxCell id="DmKBOVWt1Hb8cWZtH86P-135" value="Entrada" style="text;html=1;align=center;verticalAlign=middle;whiteSpace=wrap;rounded=0;rotation=90;" vertex="1" parent="DmKBOVWt1Hb8cWZtH86P-137">
          <mxGeometry x="-4.703296703296786" y="19.038461538461434" width="29.714285714285715" height="20.307692307692307" as="geometry" />
        </mxCell>
        <mxCell id="DmKBOVWt1Hb8cWZtH86P-130" value="" style="endArrow=none;html=1;rounded=0;strokeWidth=5;" edge="1" parent="DmKBOVWt1Hb8cWZtH86P-137">
          <mxGeometry width="50" height="50" relative="1" as="geometry">
            <mxPoint x="10.15439641839643" as="sourcePoint" />
            <mxPoint x="181.01098901098894" as="targetPoint" />
          </mxGeometry>
        </mxCell>
        <mxCell id="DmKBOVWt1Hb8cWZtH86P-131" value="" style="endArrow=none;html=1;rounded=0;strokeWidth=5;" edge="1" parent="DmKBOVWt1Hb8cWZtH86P-137">
          <mxGeometry width="50" height="50" relative="1" as="geometry">
            <mxPoint x="181.01098901098894" y="55.84615384615381" as="sourcePoint" />
            <mxPoint x="10.15439641839643" y="55.84615384615381" as="targetPoint" />
          </mxGeometry>
        </mxCell>
        <mxCell id="DmKBOVWt1Hb8cWZtH86P-132" value="&quot;ABC&quot;" style="rounded=1;whiteSpace=wrap;html=1;fillColor=#f8cecc;strokeColor=#b85450;" vertex="1" parent="DmKBOVWt1Hb8cWZtH86P-137">
          <mxGeometry x="130.00384615384604" y="7.616153846153793" width="43.58" height="40.62" as="geometry" />
        </mxCell>
        <mxCell id="DmKBOVWt1Hb8cWZtH86P-133" value="&quot;XYZ&quot;" style="rounded=1;whiteSpace=wrap;html=1;fillColor=#e1d5e7;strokeColor=#9673a6;" vertex="1" parent="DmKBOVWt1Hb8cWZtH86P-137">
          <mxGeometry x="79.00384615384604" y="7.616153846153793" width="46.72" height="40.62" as="geometry" />
        </mxCell>
        <mxCell id="DmKBOVWt1Hb8cWZtH86P-136" value="&quot;FOO&quot;" style="rounded=1;whiteSpace=wrap;html=1;fillColor=#d5e8d4;strokeColor=#82b366;" vertex="1" parent="DmKBOVWt1Hb8cWZtH86P-137">
          <mxGeometry x="26.64384615384604" y="7.616153846153793" width="46.72" height="40.62" as="geometry" />
        </mxCell>
        <mxCell id="DmKBOVWt1Hb8cWZtH86P-134" value="Saída" style="text;html=1;align=center;verticalAlign=middle;whiteSpace=wrap;rounded=0;rotation=90;" vertex="1" parent="DmKBOVWt1Hb8cWZtH86P-239">
          <mxGeometry x="165.41098901098894" y="16.499999999999886" width="33.42857142857143" height="22.846153846153843" as="geometry" />
        </mxCell>
        <mxCell id="DmKBOVWt1Hb8cWZtH86P-240" value="" style="group" vertex="1" connectable="0" parent="1">
          <mxGeometry x="49.99615384615396" y="840.0038461538462" width="193.54835164835157" height="55.84615384615381" as="geometry" />
        </mxCell>
        <mxCell id="DmKBOVWt1Hb8cWZtH86P-151" value="" style="group;fillColor=#b0b0b0;fillStyle=hatch;container=0;" vertex="1" connectable="0" parent="DmKBOVWt1Hb8cWZtH86P-240">
          <mxGeometry x="10.15439641839643" width="170.8565925925925" height="55.84615384615384" as="geometry" />
        </mxCell>
        <mxCell id="DmKBOVWt1Hb8cWZtH86P-158" value="Saída" style="text;html=1;align=center;verticalAlign=middle;whiteSpace=wrap;rounded=0;rotation=90;" vertex="1" parent="DmKBOVWt1Hb8cWZtH86P-240">
          <mxGeometry x="165.41098901098894" y="16.499999999999886" width="33.42857142857143" height="22.846153846153843" as="geometry" />
        </mxCell>
        <mxCell id="DmKBOVWt1Hb8cWZtH86P-152" value="Entrada" style="text;html=1;align=center;verticalAlign=middle;whiteSpace=wrap;rounded=0;rotation=90;" vertex="1" parent="DmKBOVWt1Hb8cWZtH86P-240">
          <mxGeometry x="-4.703296703296786" y="19.038461538461434" width="29.714285714285715" height="20.307692307692307" as="geometry" />
        </mxCell>
        <mxCell id="DmKBOVWt1Hb8cWZtH86P-153" value="" style="endArrow=none;html=1;rounded=0;strokeWidth=5;" edge="1" parent="DmKBOVWt1Hb8cWZtH86P-240">
          <mxGeometry width="50" height="50" relative="1" as="geometry">
            <mxPoint x="10.15439641839643" as="sourcePoint" />
            <mxPoint x="181.01098901098894" as="targetPoint" />
          </mxGeometry>
        </mxCell>
        <mxCell id="DmKBOVWt1Hb8cWZtH86P-154" value="" style="endArrow=none;html=1;rounded=0;strokeWidth=5;" edge="1" parent="DmKBOVWt1Hb8cWZtH86P-240">
          <mxGeometry width="50" height="50" relative="1" as="geometry">
            <mxPoint x="181.01098901098894" y="55.84615384615381" as="sourcePoint" />
            <mxPoint x="10.15439641839643" y="55.84615384615381" as="targetPoint" />
          </mxGeometry>
        </mxCell>
        <mxCell id="DmKBOVWt1Hb8cWZtH86P-156" value="&quot;XYZ&quot;" style="rounded=1;whiteSpace=wrap;html=1;fillColor=#e1d5e7;strokeColor=#9673a6;" vertex="1" parent="DmKBOVWt1Hb8cWZtH86P-240">
          <mxGeometry x="125.00384615384604" y="7.616153846153793" width="46.72" height="40.62" as="geometry" />
        </mxCell>
        <mxCell id="DmKBOVWt1Hb8cWZtH86P-157" value="&quot;FOO&quot;" style="rounded=1;whiteSpace=wrap;html=1;fillColor=#d5e8d4;strokeColor=#82b366;" vertex="1" parent="DmKBOVWt1Hb8cWZtH86P-240">
          <mxGeometry x="69.64384615384604" y="7.616153846153793" width="46.72" height="40.62" as="geometry" />
        </mxCell>
        <mxCell id="DmKBOVWt1Hb8cWZtH86P-241" value="" style="group" vertex="1" connectable="0" parent="1">
          <mxGeometry x="353.50615384615395" y="839.4738461538462" width="193.54835164835146" height="55.84615384615381" as="geometry" />
        </mxCell>
        <mxCell id="DmKBOVWt1Hb8cWZtH86P-160" value="" style="group;fillColor=#b0b0b0;fillStyle=hatch;container=0;" vertex="1" connectable="0" parent="DmKBOVWt1Hb8cWZtH86P-241">
          <mxGeometry x="10.154396418396402" width="170.8565925925925" height="55.84615384615384" as="geometry" />
        </mxCell>
        <mxCell id="DmKBOVWt1Hb8cWZtH86P-161" value="Saída" style="text;html=1;align=center;verticalAlign=middle;whiteSpace=wrap;rounded=0;rotation=90;" vertex="1" parent="DmKBOVWt1Hb8cWZtH86P-241">
          <mxGeometry x="165.41098901098889" y="16.499999999999886" width="33.42857142857143" height="22.846153846153843" as="geometry" />
        </mxCell>
        <mxCell id="DmKBOVWt1Hb8cWZtH86P-162" value="Entrada" style="text;html=1;align=center;verticalAlign=middle;whiteSpace=wrap;rounded=0;rotation=90;" vertex="1" parent="DmKBOVWt1Hb8cWZtH86P-241">
          <mxGeometry x="-4.703296703296758" y="19.038461538461434" width="29.714285714285715" height="20.307692307692307" as="geometry" />
        </mxCell>
        <mxCell id="DmKBOVWt1Hb8cWZtH86P-163" value="" style="endArrow=none;html=1;rounded=0;strokeWidth=5;" edge="1" parent="DmKBOVWt1Hb8cWZtH86P-241">
          <mxGeometry width="50" height="50" relative="1" as="geometry">
            <mxPoint x="10.154396418396402" as="sourcePoint" />
            <mxPoint x="181.0109890109889" as="targetPoint" />
          </mxGeometry>
        </mxCell>
        <mxCell id="DmKBOVWt1Hb8cWZtH86P-164" value="" style="endArrow=none;html=1;rounded=0;strokeWidth=5;" edge="1" parent="DmKBOVWt1Hb8cWZtH86P-241">
          <mxGeometry width="50" height="50" relative="1" as="geometry">
            <mxPoint x="181.0109890109889" y="55.84615384615381" as="sourcePoint" />
            <mxPoint x="10.154396418396402" y="55.84615384615381" as="targetPoint" />
          </mxGeometry>
        </mxCell>
        <mxCell id="DmKBOVWt1Hb8cWZtH86P-165" value="&quot;XYZ&quot;" style="rounded=1;whiteSpace=wrap;html=1;fillColor=#e1d5e7;strokeColor=#9673a6;" vertex="1" parent="DmKBOVWt1Hb8cWZtH86P-241">
          <mxGeometry x="125.00384615384604" y="7.616153846153793" width="46.72" height="40.62" as="geometry" />
        </mxCell>
        <mxCell id="DmKBOVWt1Hb8cWZtH86P-166" value="&quot;FOO&quot;" style="rounded=1;whiteSpace=wrap;html=1;fillColor=#d5e8d4;strokeColor=#82b366;" vertex="1" parent="DmKBOVWt1Hb8cWZtH86P-241">
          <mxGeometry x="72.64384615384603" y="7.616153846153793" width="46.72" height="40.62" as="geometry" />
        </mxCell>
        <mxCell id="DmKBOVWt1Hb8cWZtH86P-167" value="&quot;BAR&quot;" style="rounded=1;whiteSpace=wrap;html=1;fillColor=#dae8fc;strokeColor=#6c8ebf;" vertex="1" parent="DmKBOVWt1Hb8cWZtH86P-241">
          <mxGeometry x="19.643846153846027" y="7.616153846153793" width="46.72" height="40.62" as="geometry" />
        </mxCell>
        <mxCell id="DmKBOVWt1Hb8cWZtH86P-242" value="" style="group" vertex="1" connectable="0" parent="1">
          <mxGeometry x="780" y="100" width="100" height="170" as="geometry" />
        </mxCell>
        <mxCell id="DmKBOVWt1Hb8cWZtH86P-243" value="" style="endArrow=none;html=1;rounded=0;strokeWidth=5;" edge="1" parent="DmKBOVWt1Hb8cWZtH86P-242">
          <mxGeometry width="50" height="50" relative="1" as="geometry">
            <mxPoint y="170" as="sourcePoint" />
            <mxPoint as="targetPoint" />
          </mxGeometry>
        </mxCell>
        <mxCell id="DmKBOVWt1Hb8cWZtH86P-244" value="" style="endArrow=oval;html=1;rounded=0;strokeWidth=5;startArrow=oval;startFill=1;endFill=1;" edge="1" parent="DmKBOVWt1Hb8cWZtH86P-242">
          <mxGeometry width="50" height="50" relative="1" as="geometry">
            <mxPoint y="170" as="sourcePoint" />
            <mxPoint x="100" y="170" as="targetPoint" />
          </mxGeometry>
        </mxCell>
        <mxCell id="DmKBOVWt1Hb8cWZtH86P-245" value="" style="endArrow=none;html=1;rounded=0;strokeWidth=5;" edge="1" parent="DmKBOVWt1Hb8cWZtH86P-242">
          <mxGeometry width="50" height="50" relative="1" as="geometry">
            <mxPoint x="100" as="sourcePoint" />
            <mxPoint x="100" y="170" as="targetPoint" />
          </mxGeometry>
        </mxCell>
        <mxCell id="DmKBOVWt1Hb8cWZtH86P-250" value="xpto()" style="rounded=1;whiteSpace=wrap;html=1;fillColor=#e1d5e7;strokeColor=#9673a6;" vertex="1" parent="1">
          <mxGeometry x="1315" y="230" width="80" height="30" as="geometry" />
        </mxCell>
        <mxCell id="DmKBOVWt1Hb8cWZtH86P-256" value="WebAPI / Node Timers / React-Native" style="shape=umlFrame;whiteSpace=wrap;html=1;pointerEvents=0;width=220;height=30;" vertex="1" parent="1">
          <mxGeometry x="900" y="340" width="300" height="200" as="geometry" />
        </mxCell>
        <mxCell id="DmKBOVWt1Hb8cWZtH86P-257" value="outras&lt;br&gt;implementações" style="rounded=1;whiteSpace=wrap;html=1;fillColor=#fad7ac;strokeColor=#b46504;" vertex="1" parent="1">
          <mxGeometry x="920" y="470" width="250" height="60" as="geometry" />
        </mxCell>
        <mxCell id="DmKBOVWt1Hb8cWZtH86P-258" value="setTimeout" style="rounded=1;whiteSpace=wrap;html=1;fillColor=#d5e8d4;strokeColor=#82b366;" vertex="1" parent="1">
          <mxGeometry x="920" y="390" width="110" height="60" as="geometry" />
        </mxCell>
        <mxCell id="DmKBOVWt1Hb8cWZtH86P-259" value="Promises" style="rounded=1;whiteSpace=wrap;html=1;fillColor=#bac8d3;strokeColor=#23445d;" vertex="1" parent="1">
          <mxGeometry x="1060" y="390" width="110" height="60" as="geometry" />
        </mxCell>
        <mxCell id="DmKBOVWt1Hb8cWZtH86P-261" value="WebAPI / Node Timers / React-Native" style="shape=umlFrame;whiteSpace=wrap;html=1;pointerEvents=0;width=220;height=30;" vertex="1" parent="1">
          <mxGeometry x="900" y="570" width="300" height="200" as="geometry" />
        </mxCell>
        <mxCell id="DmKBOVWt1Hb8cWZtH86P-263" value="disparar método anônimo daqui 0ms" style="rounded=1;whiteSpace=wrap;html=1;fillColor=#b1ddf0;strokeColor=#10739e;" vertex="1" parent="1">
          <mxGeometry x="920" y="620" width="110" height="60" as="geometry" />
        </mxCell>
        <mxCell id="DmKBOVWt1Hb8cWZtH86P-265" value="WebAPI / Node Timers / React-Native" style="shape=umlFrame;whiteSpace=wrap;html=1;pointerEvents=0;width=220;height=30;" vertex="1" parent="1">
          <mxGeometry x="900" y="800" width="300" height="200" as="geometry" />
        </mxCell>
        <mxCell id="DmKBOVWt1Hb8cWZtH86P-266" value="disparar método anônimo daqui 50ms" style="rounded=1;whiteSpace=wrap;html=1;fillColor=#b1ddf0;strokeColor=#10739e;" vertex="1" parent="1">
          <mxGeometry x="920" y="850" width="110" height="60" as="geometry" />
        </mxCell>
        <mxCell id="DmKBOVWt1Hb8cWZtH86P-267" value="disparar método anônimo daqui 100ms" style="rounded=1;whiteSpace=wrap;html=1;fillColor=#b1ddf0;strokeColor=#10739e;" vertex="1" parent="1">
          <mxGeometry x="920" y="930" width="110" height="60" as="geometry" />
        </mxCell>
        <mxCell id="DmKBOVWt1Hb8cWZtH86P-251" value="setTimeout()" style="rounded=1;whiteSpace=wrap;html=1;fillColor=#b1ddf0;strokeColor=#10739e;" vertex="1" parent="1">
          <mxGeometry x="1255" y="110" width="80" height="30" as="geometry" />
        </mxCell>
        <mxCell id="DmKBOVWt1Hb8cWZtH86P-268" value="" style="group;flipV=0;flipH=1;" vertex="1" connectable="0" parent="1">
          <mxGeometry x="900" y="1070" width="390" height="55.85" as="geometry" />
        </mxCell>
        <mxCell id="DmKBOVWt1Hb8cWZtH86P-269" value="" style="group;fillColor=#b0b0b0;fillStyle=hatch;" vertex="1" connectable="0" parent="DmKBOVWt1Hb8cWZtH86P-268">
          <mxGeometry x="25.262790341170508" width="344.2760971283043" height="55.85000000000003" as="geometry" />
        </mxCell>
        <mxCell id="DmKBOVWt1Hb8cWZtH86P-270" value="" style="endArrow=none;html=1;rounded=0;strokeWidth=5;" edge="1" parent="DmKBOVWt1Hb8cWZtH86P-269">
          <mxGeometry width="50" height="50" relative="1" as="geometry">
            <mxPoint as="sourcePoint" />
            <mxPoint x="344.2760971283043" as="targetPoint" />
          </mxGeometry>
        </mxCell>
        <mxCell id="DmKBOVWt1Hb8cWZtH86P-271" value="" style="endArrow=none;html=1;rounded=0;strokeWidth=5;" edge="1" parent="DmKBOVWt1Hb8cWZtH86P-269">
          <mxGeometry width="50" height="50" relative="1" as="geometry">
            <mxPoint x="344.2760971283043" y="55.85000000000003" as="sourcePoint" />
            <mxPoint y="55.85000000000003" as="targetPoint" />
          </mxGeometry>
        </mxCell>
        <mxCell id="DmKBOVWt1Hb8cWZtH86P-272" value="Entrada" style="text;html=1;align=center;verticalAlign=middle;whiteSpace=wrap;rounded=0;rotation=90;" vertex="1" parent="DmKBOVWt1Hb8cWZtH86P-268">
          <mxGeometry x="339.6028479126098" y="19.039772727272634" width="59.87429668027414" height="20.309090909090923" as="geometry" />
        </mxCell>
        <mxCell id="DmKBOVWt1Hb8cWZtH86P-273" value="Saída" style="text;html=1;align=center;verticalAlign=middle;whiteSpace=wrap;rounded=0;rotation=90;" vertex="1" parent="DmKBOVWt1Hb8cWZtH86P-268">
          <mxGeometry x="-10.66178766699399" y="16.501136363636373" width="67.35858376530841" height="22.847727272727283" as="geometry" />
        </mxCell>
        <mxCell id="DmKBOVWt1Hb8cWZtH86P-274" value="&lt;div style=&quot;font-family: Menlo, Monaco, &amp;quot;Courier New&amp;quot;, monospace; line-height: 18px; white-space: pre;&quot;&gt;&lt;div style=&quot;&quot;&gt;&lt;font color=&quot;#141414&quot;&gt;()=&amp;gt;{&lt;/font&gt;&lt;/div&gt;&lt;div style=&quot;&quot;&gt;&lt;font color=&quot;#141414&quot;&gt;  console.log(&lt;br&gt;   &quot;Mensagem setTimeout&quot;);&lt;/font&gt;&lt;/div&gt;&lt;div style=&quot;&quot;&gt;&lt;font color=&quot;#141414&quot;&gt;}&lt;/font&gt;&lt;/div&gt;&lt;/div&gt;" style="rounded=1;whiteSpace=wrap;html=1;fillColor=#b1ddf0;strokeColor=#10739e;align=left;" vertex="1" parent="1">
          <mxGeometry x="980" y="1190" width="210" height="80" as="geometry" />
        </mxCell>
        <mxCell id="DmKBOVWt1Hb8cWZtH86P-275" value="&lt;div style=&quot;font-family: Menlo, Monaco, &amp;quot;Courier New&amp;quot;, monospace; line-height: 18px; white-space: pre;&quot;&gt;&lt;div style=&quot;&quot;&gt;&lt;font color=&quot;#141414&quot;&gt;()=&amp;gt;{&lt;/font&gt;&lt;/div&gt;&lt;div style=&quot;&quot;&gt;&lt;font color=&quot;#141414&quot;&gt;  console.log(&quot;Mensagem 2&quot;);&lt;/font&gt;&lt;/div&gt;&lt;div style=&quot;&quot;&gt;&lt;font color=&quot;#141414&quot;&gt;}&lt;/font&gt;&lt;/div&gt;&lt;/div&gt;" style="rounded=1;whiteSpace=wrap;html=1;fillColor=#b1ddf0;strokeColor=#10739e;align=left;" vertex="1" parent="1">
          <mxGeometry x="980" y="1300" width="210" height="60" as="geometry" />
        </mxCell>
        <mxCell id="DmKBOVWt1Hb8cWZtH86P-276" value="WebAPI / Node Timers / React-Native" style="shape=umlFrame;whiteSpace=wrap;html=1;pointerEvents=0;width=220;height=30;" vertex="1" parent="1">
          <mxGeometry x="1250" y="800" width="300" height="200" as="geometry" />
        </mxCell>
        <mxCell id="DmKBOVWt1Hb8cWZtH86P-277" value="disparar método anônimo daqui 50ms" style="rounded=1;whiteSpace=wrap;html=1;fillColor=#b1ddf0;strokeColor=#10739e;" vertex="1" parent="1">
          <mxGeometry x="1270" y="930" width="110" height="60" as="geometry" />
        </mxCell>
        <mxCell id="DmKBOVWt1Hb8cWZtH86P-279" value="WebAPI / Node Timers / React-Native" style="shape=umlFrame;whiteSpace=wrap;html=1;pointerEvents=0;width=220;height=30;" vertex="1" parent="1">
          <mxGeometry x="1260" y="570" width="300" height="200" as="geometry" />
        </mxCell>
        <mxCell id="DmKBOVWt1Hb8cWZtH86P-280" value="&lt;div style=&quot;font-family: Menlo, Monaco, &amp;quot;Courier New&amp;quot;, monospace; line-height: 18px; white-space: pre;&quot;&gt;&lt;div style=&quot;&quot;&gt;&lt;font color=&quot;#141414&quot;&gt;()=&amp;gt;{&lt;/font&gt;&lt;/div&gt;&lt;div style=&quot;&quot;&gt;&lt;font color=&quot;#141414&quot;&gt;  ...&lt;/font&gt;&lt;/div&gt;&lt;div style=&quot;&quot;&gt;&lt;font color=&quot;#141414&quot;&gt;}&lt;/font&gt;&lt;/div&gt;&lt;/div&gt;" style="rounded=1;whiteSpace=wrap;html=1;fillColor=#b1ddf0;strokeColor=#10739e;align=left;" vertex="1" parent="1">
          <mxGeometry x="1230" y="1210" width="210" height="60" as="geometry" />
        </mxCell>
        <mxCell id="DmKBOVWt1Hb8cWZtH86P-281" value="&lt;div style=&quot;font-family: Menlo, Monaco, &amp;quot;Courier New&amp;quot;, monospace; line-height: 18px; white-space: pre;&quot;&gt;&lt;div style=&quot;&quot;&gt;&lt;font color=&quot;#141414&quot;&gt;log()&lt;/font&gt;&lt;/div&gt;&lt;/div&gt;" style="rounded=1;whiteSpace=wrap;html=1;fillColor=#b1ddf0;strokeColor=#10739e;align=left;" vertex="1" parent="1">
          <mxGeometry x="1230" y="1290" width="210" height="60" as="geometry" />
        </mxCell>
        <mxCell id="DmKBOVWt1Hb8cWZtH86P-252" value="log()" style="rounded=1;whiteSpace=wrap;html=1;" vertex="1" parent="1">
          <mxGeometry x="1310" y="20" width="80" height="30" as="geometry" />
        </mxCell>
        <mxCell id="DmKBOVWt1Hb8cWZtH86P-282" value="then()" style="rounded=1;whiteSpace=wrap;html=1;fillColor=#fad9d5;strokeColor=#ae4132;" vertex="1" parent="1">
          <mxGeometry x="1380" y="130" width="80" height="30" as="geometry" />
        </mxCell>
        <mxCell id="DmKBOVWt1Hb8cWZtH86P-283" value="resolve()" style="rounded=1;whiteSpace=wrap;html=1;fillColor=#fad7ac;strokeColor=#b46504;" vertex="1" parent="1">
          <mxGeometry x="1380" y="90" width="80" height="30" as="geometry" />
        </mxCell>
        <mxCell id="DmKBOVWt1Hb8cWZtH86P-284" value="resultado da promise" style="rounded=1;whiteSpace=wrap;html=1;fillColor=#fad9d5;strokeColor=#ae4132;" vertex="1" parent="1">
          <mxGeometry x="1295" y="320" width="110" height="60" as="geometry" />
        </mxCell>
        <mxCell id="DmKBOVWt1Hb8cWZtH86P-285" value="&lt;div style=&quot;font-family: Menlo, Monaco, &amp;quot;Courier New&amp;quot;, monospace; line-height: 18px; white-space: pre;&quot;&gt;&lt;div style=&quot;&quot;&gt;&lt;font color=&quot;#141414&quot;&gt;()=&amp;gt;{&lt;/font&gt;&lt;/div&gt;&lt;div style=&quot;&quot;&gt;&lt;font color=&quot;#141414&quot;&gt;  console.log(&lt;br&gt;   &quot;Mensagem Promise&quot;);&lt;/font&gt;&lt;/div&gt;&lt;div style=&quot;&quot;&gt;&lt;font color=&quot;#141414&quot;&gt;}&lt;/font&gt;&lt;/div&gt;&lt;/div&gt;" style="rounded=1;whiteSpace=wrap;html=1;fillColor=#fad9d5;strokeColor=#ae4132;align=left;" vertex="1" parent="1">
          <mxGeometry x="720" y="1190" width="210" height="80" as="geometry" />
        </mxCell>
        <mxCell id="DmKBOVWt1Hb8cWZtH86P-246" value="anonymous()" style="rounded=1;whiteSpace=wrap;html=1;fillColor=#b0e3e6;strokeColor=#0e8088;" vertex="1" parent="1">
          <mxGeometry x="1050" y="230" width="80" height="30" as="geometry" />
        </mxCell>
      </root>
    </mxGraphModel>
  </diagram>
</mxfile>
